<svg xmlns="http://www.w3.org/2000/svg" xmlns:xlink="http://www.w3.org/1999/xlink" style="margin:auto;display:block;z-index:1;position:relative" width="3000" height="2000" preserveAspectRatio="xMidYMid" viewBox="0 0 3000 2000">
<g transform="translate(1500,1000) scale(1,1) translate(-1500,-1000)"><linearGradient id="lg-0.7830455023887211" x1="0" x2="1" y1="0" y2="0">
  <stop stop-color="#8e34fc" offset="0"></stop>
  <stop stop-color="#34fcff" offset="1"></stop>
</linearGradient><path d="M 1841 1000 C 1841 1102 1680 1225 1583 1256 C 1486 1287 1282 1284 1222 1202 C 1162 1120 1165 882 1225 800 C 1285 718 1495 686 1592 718 C 1689 750 1841 898 1841 1000" fill="url(&quot;#lg-0.7830455023887211&quot;)" opacity="0.49">
  <animate attributeName="d" dur="10s" repeatCount="indefinite" keyTimes="0;0.3333333333333333;0.6666666666666666;1" calcmod="spline" keySplines="0.3 0.1 0.7 0.9;0.3 0.1 0.7 0.9;0.3 0.1 0.7 0.9" begin="-5s" values="M 1841 1000 C 1841 1102 1680 1225 1583 1256 C 1486 1287 1282 1284 1222 1202 C 1162 1120 1165 882 1225 800 C 1285 718 1495 686 1592 718 C 1689 750 1841 898 1841 1000;M 1859 1000 C 1859 1102 1678 1219 1581 1250 C 1484 1281 1315 1260 1255 1178 C 1195 1096 1201 908 1261 826 C 1321 744 1498 676 1595 707 C 1692 738 1859 898 1859 1000;M 1863 1000 C 1863 1102 1678 1220 1581 1251 C 1484 1282 1314 1261 1254 1179 C 1194 1097 1202 909 1262 827 C 1322 745 1476 743 1573 774 C 1670 805 1863 898 1863 1000;M 1841 1000 C 1841 1102 1680 1225 1583 1256 C 1486 1287 1282 1284 1222 1202 C 1162 1120 1165 882 1225 800 C 1285 718 1495 686 1592 718 C 1689 750 1841 898 1841 1000" fill="url(&quot;#lg-0.7830455023887211&quot;)"></animate>
</path><path d="M 1893 1000 C 1893 1102 1683 1235 1586 1266 C 1489 1297 1297 1273 1237 1191 C 1177 1109 1143 866 1203 784 C 1263 702 1486 713 1583 745 C 1680 777 1893 898 1893 1000" fill="url(&quot;#lg-0.7830455023887211&quot;)" opacity="0.49">
  <animate attributeName="d" dur="10s" repeatCount="indefinite" keyTimes="0;0.3333333333333333;0.6666666666666666;1" calcmod="spline" keySplines="0.3 0.1 0.7 0.9;0.3 0.1 0.7 0.9;0.3 0.1 0.7 0.9" begin="-5s" values="M 1893 1000 C 1893 1102 1683 1235 1586 1266 C 1489 1297 1297 1273 1237 1191 C 1177 1109 1143 866 1203 784 C 1263 702 1486 713 1583 745 C 1680 777 1893 898 1893 1000;M 1882 1000 C 1882 1102 1689 1252 1592 1283 C 1495 1314 1295 1274 1235 1192 C 1175 1110 1178 892 1238 810 C 1298 728 1481 728 1578 759 C 1675 790 1882 898 1882 1000;M 1859 1000 C 1859 1102 1689 1250 1592 1282 C 1495 1314 1284 1282 1224 1200 C 1164 1118 1153 873 1213 791 C 1273 709 1475 746 1572 777 C 1669 808 1859 898 1859 1000;M 1893 1000 C 1893 1102 1683 1235 1586 1266 C 1489 1297 1297 1273 1237 1191 C 1177 1109 1143 866 1203 784 C 1263 702 1486 713 1583 745 C 1680 777 1893 898 1893 1000" fill="url(&quot;#lg-0.7830455023887211&quot;)"></animate>
</path><path d="M 1816 1000 C 1816 1102 1673 1201 1576 1233 C 1479 1265 1324 1253 1264 1171 C 1204 1089 1167 883 1227 801 C 1287 719 1478 737 1575 768 C 1672 799 1816 898 1816 1000" fill="url(&quot;#lg-0.7830455023887211&quot;)" opacity="0.49">
  <animate attributeName="d" dur="10s" repeatCount="indefinite" keyTimes="0;0.3333333333333333;0.6666666666666666;1" calcmod="spline" keySplines="0.3 0.1 0.7 0.9;0.3 0.1 0.7 0.9;0.3 0.1 0.7 0.9" begin="-5s" values="M 1816 1000 C 1816 1102 1673 1201 1576 1233 C 1479 1265 1324 1253 1264 1171 C 1204 1089 1167 883 1227 801 C 1287 719 1478 737 1575 768 C 1672 799 1816 898 1816 1000;M 1894 1000 C 1894 1102 1668 1186 1571 1218 C 1474 1250 1314 1261 1254 1179 C 1194 1097 1168 884 1228 802 C 1288 720 1496 682 1593 713 C 1690 744 1894 898 1894 1000;M 1899 1000 C 1899 1102 1676 1212 1579 1243 C 1482 1274 1287 1280 1227 1198 C 1167 1116 1134 860 1194 778 C 1254 696 1473 753 1570 785 C 1667 817 1899 898 1899 1000;M 1816 1000 C 1816 1102 1673 1201 1576 1233 C 1479 1265 1324 1253 1264 1171 C 1204 1089 1167 883 1227 801 C 1287 719 1478 737 1575 768 C 1672 799 1816 898 1816 1000" fill="url(&quot;#lg-0.7830455023887211&quot;)"></animate>
</path><path d="M 1883 1000 C 1883 1102 1686 1241 1589 1273 C 1492 1305 1276 1288 1216 1206 C 1156 1124 1198 906 1258 824 C 1318 742 1483 723 1580 754 C 1677 785 1883 898 1883 1000" fill="url(&quot;#lg-0.7830455023887211&quot;)" opacity="0.49">
  <animate attributeName="d" dur="10s" repeatCount="indefinite" keyTimes="0;0.3333333333333333;0.6666666666666666;1" calcmod="spline" keySplines="0.3 0.1 0.7 0.9;0.3 0.1 0.7 0.9;0.3 0.1 0.7 0.9" begin="-5s" values="M 1883 1000 C 1883 1102 1686 1241 1589 1273 C 1492 1305 1276 1288 1216 1206 C 1156 1124 1198 906 1258 824 C 1318 742 1483 723 1580 754 C 1677 785 1883 898 1883 1000;M 1828 1000 C 1828 1102 1669 1191 1572 1222 C 1475 1253 1272 1291 1212 1209 C 1152 1127 1153 874 1213 792 C 1273 710 1475 747 1572 779 C 1669 811 1828 898 1828 1000;M 1897 1000 C 1897 1102 1669 1188 1572 1220 C 1475 1252 1297 1273 1237 1191 C 1177 1109 1177 891 1237 809 C 1297 727 1481 729 1578 760 C 1675 791 1897 898 1897 1000;M 1883 1000 C 1883 1102 1686 1241 1589 1273 C 1492 1305 1276 1288 1216 1206 C 1156 1124 1198 906 1258 824 C 1318 742 1483 723 1580 754 C 1677 785 1883 898 1883 1000" fill="url(&quot;#lg-0.7830455023887211&quot;)"></animate>
</path></g>
</svg>